PathFileType	4	(X/Y/Z)	9_2_49_p0_0-150_filt_butterworth.trc
DataRate	CameraRate	NumFrames	NumMarkers	Units	OrigDataRate	OrigDataStartFrame	OrigNumFrames
60.0	60.0	7	27	m	60.0	0	150
Frame#	Time	RHip			RKnee			RAnkle			RBigToe			RSmallToe			RHeel			LHip			LKnee			LAnkle			LBigToe			LSmallToe			LHeel			Neck			Head			Nose			RShoulder			RElbow			RWrist			RThumb			RIndex			RPinky			LShoulder			LElbow			LWrist			LThumb			LIndex			LPinky			
		X1	Y1	Z1	X2	Y2	Z2	X3	Y3	Z3	X4	Y4	Z4	X5	Y5	Z5	X6	Y6	Z6	X7	Y7	Z7	X8	Y8	Z8	X9	Y9	Z9	X10	Y10	Z10	X11	Y11	Z11	X12	Y12	Z12	X13	Y13	Z13	X14	Y14	Z14	X15	Y15	Z15	X16	Y16	Z16	X17	Y17	Z17	X18	Y18	Z18	X19	Y19	Z19	X20	Y20	Z20	X21	Y21	Z21	X22	Y22	Z22	X23	Y23	Z23	X24	Y24	Z24	X25	Y25	Z25	X26	Y26	Z26	X27	Y27	Z27	
0	0.0	0.3017374484623211	0.49069180311678123	1.0137015673472693	0.2946030007556648	0.5229680908904928	1.4547388465216473	0.285242255475219	0.6291591780403655	1.885751853852742	0.27383572514705895	0.43303164042170345	1.8944332379096562	0.32124806389026855	0.4686230590358812	1.900651695667186	0.2686418178908775	0.6920440894133736	1.9446308432935482	0.09736077732260102	0.4767079888363814	1.0176293733484374	0.09459818816186802	0.5320721222292066	1.455909331055996	0.09416012898047026	0.5799804775611374	1.867494540540537	0.13305262457099803	0.4328461717509363	1.8945955923139808	0.06569214985318367	0.4574851311092852	1.8830127301123827	0.10586865130462611	0.6203090713866712	1.9166164609092047	0.19895205559208357	0.4303566193850076	0.5090288965418586	0.20889708986875882	0.320455472262229	0.2584065525289084	0.19188686464556462	0.2587175674493843	0.400695397861651	0.33637687274308153	0.38783006910122153	0.5829481316258822	0.37322934535670793	0.4107379376534691	0.8506226954698757	0.2767178366715103	0.31063999978730467	1.038242104986701	0.18558580971234082	0.2873835843682858	1.1066106352530884	0.17864373465165778	0.2981868429617895	1.1190429226182503	0.19558515927130737	0.2999866925266833	1.1379225995211582	0.06254432419863429	0.45167973972813064	0.5922279950251591	0.02919269274286485	0.40501098497987836	0.852020744291406	0.1137382876773568	0.30998598293536767	1.0333145805080426	0.19177708172971442	0.27179967017687856	1.0872524354574398	0.19282014344754314	0.2703999082496362	1.1100541329517493	0.18249953049320508	0.2951244007884902	1.129760540006883
1	0.0166666666666666	0.29902927757916714	0.4900103714296837	1.017633065849902	0.29498170366505244	0.5216531053692306	1.4552438732446793	0.2883712153022925	0.6179464619380675	1.8821872279270317	0.27398864648593085	0.43002566161159145	1.891473993034792	0.3216739453539512	0.46843226971147545	1.897657156235454	0.26792569441822095	0.6884151059513043	1.9426706801073854	0.0950319075217914	0.47588131769840714	1.0197323232045044	0.09512737452846086	0.5313521578222832	1.457669951130573	0.09411889113311138	0.5799161525014911	1.8674835691265048	0.1295152210275093	0.4371836563780116	1.8959283649899072	0.06429173227517113	0.461413051087963	1.8851633564466588	0.10899954782007484	0.6245116188291122	1.9184751621162432	0.1989893407189154	0.43045932117376734	0.5090750874788578	0.20889877952180425	0.3205064778183417	0.2584233265012381	0.1918851458662436	0.2587180974872476	0.4006755181452611	0.33409805210007215	0.39522412652933303	0.5860648833802501	0.3717761318062015	0.4104156806683935	0.8516014933375811	0.2766737721504283	0.31058919375471505	1.0382884301529234	0.1832495868130684	0.2952177645297801	1.1070854789831073	0.17854658251192357	0.30155962777389844	1.122305384445471	0.19410092899650058	0.2988159497840368	1.1376511576573765	0.06268186109000663	0.4525028046051234	0.5943713681325951	0.02910985923739208	0.4050966084397637	0.8520146339223995	0.1120637716048005	0.30292147651136214	1.030695230429355	0.18791628175986838	0.27715643609206025	1.0914027025349844	0.19277789779876106	0.27115971000570416	1.1102681124812839	0.18251809815647058	0.2955604721969043	1.12977743557053
2	0.0333333333333333	0.29722256584400086	0.48929499613295996	1.0202411545635832	0.29531473856865864	0.5208302701793021	1.4550154085728226	0.2902076035181407	0.6113894373410051	1.879758381767072	0.274354436818128	0.4290872282993665	1.8907410208276185	0.32192968681201056	0.4685105241590015	1.8960227232967066	0.2679722758825348	0.6879263324588385	1.942362160508003	0.09355703756203157	0.47532894813257826	1.021973757788525	0.09544878865191436	0.530978381167601	1.4590054629671387	0.09416152090526693	0.5799280552220938	1.8675047338228037	0.1261868883235081	0.4414557798240898	1.8979104958274964	0.0636909755781876	0.4631534302430369	1.8861389552181853	0.11018986324380783	0.6291307240085261	1.9206328929647412	0.19905250813163916	0.4305268731353896	0.5091094429027634	0.20892843660484348	0.32065271168720544	0.25843256191158664	0.19188022987207776	0.25870199786375025	0.40065488956073325	0.3327237618839674	0.39965930565857066	0.5879518846598983	0.3703480716869569	0.4099800050503659	0.8519913903571011	0.2766400787027242	0.310528336501065	1.038298835128843	0.18183823332049967	0.2972156742141487	1.1065871729693255	0.17870400898849545	0.30047390402962004	1.123259854865217	0.19274191598111975	0.2979822361000967	1.1374650699127196	0.06276430228573866	0.4529862971721458	0.5956612126698967	0.02907399737801903	0.405166947615352	0.8520361648380048	0.11102740179129508	0.29860212513357076	1.0289115424411226	0.18580901080963572	0.2795068214794923	1.0932372844462106	0.19278508171083128	0.27177723542339705	1.1104020246014714	0.1826898411603238	0.29595521330593033	1.1298815055241929
3	0.05	0.2964652354422608	0.4886751330378637	1.0207940090784522	0.29551984766514955	0.5206046699448398	1.454364863562461	0.2906882087470325	0.6096682414922097	1.878935186656327	0.27499225154618634	0.430632295972321	1.8921462879027378	0.32210871983008676	0.4684083589787498	1.8955686488508072	0.26852712818462254	0.6896959752763632	1.9432384595644876	0.09301257445166188	0.4750161291390952	1.023397175070069	0.09537641097596736	0.53087880758494	1.4599208220823134	0.09430749358069634	0.5799846831701068	1.8675404810453977	0.12420958378103136	0.44477715203060825	1.90020283581596	0.06415315173365403	0.4620016151502102	1.8855401775922676	0.10976815943161602	0.6327472946865247	1.9223703200507158	0.19902630373541705	0.4305245700403084	0.5091215009049482	0.20897959315563897	0.3208813157914786	0.2584312823602898	0.19187431538881314	0.2586753475027769	0.40063668077011055	0.33232855102158626	0.40089439676289684	0.5885022488305681	0.3692584003408342	0.40941781806970023	0.8516107300819137	0.2766194063143214	0.3104656126746434	1.0382545998995039	0.181371231042892	0.2909464047979865	1.1044770005227362	0.1788814721819976	0.29433445019199594	1.1214538754255765	0.19183529267179605	0.297698243832292	1.1374086052463512	0.06279309801833152	0.453149621906302	0.5960318748490478	0.029082506762966566	0.40521266290579133	0.8520749723375111	0.11066711060026302	0.29723196120406586	1.0279772157995422	0.1857258318143153	0.2772090667577198	1.0919720150538137	0.19284812910414167	0.27134249867253013	1.1102210060120048	0.1829974029283593	0.2954712911638677	1.1300687406256424
4	0.0666666666666666	0.29638390365151823	0.48833870379867855	1.0193709234352797	0.2955751127208064	0.5206999546410207	1.45390242858573	0.2905920906977444	0.6100577337687595	1.8793482669294201	0.27561478556195745	0.43291563432374597	1.8939134057506615	0.3226192134456293	0.4668848334452108	1.894925038365217	0.26898830213524166	0.6913504506619009	1.9440327517170255	0.09296974955861967	0.47466567548710925	1.0227288359514557	0.09497226417065893	0.5307336337378769	1.460399490511978	0.09443319378825575	0.5800087495083857	1.8675499947204215	0.12433734107357705	0.44665612396921867	1.9019480839294334	0.06503964514169984	0.45967057379632137	1.8842742578330713	0.10908987848501327	0.634264769905556	1.9230878841286259	0.19860474704095574	0.43039347814028317	0.5091056594213181	0.20896459748637444	0.3208396363526886	0.2584301603171957	0.19187042806966081	0.25865501693038917	0.4006237475104273	0.33241634479803	0.40056486674335584	0.5883881070251191	0.3687090841558079	0.40886521613047544	0.8509289971180926	0.2766054067911583	0.31039034990238323	1.0381575887514611	0.18128790839974618	0.2792668895138781	1.1011929188188123	0.17857178881352434	0.28548920814387624	1.117959220610745	0.19149945362566875	0.29778761990177055	1.1374598698192875	0.06281253693051271	0.4532564183120583	0.5959570826575133	0.0291083844660772	0.40524304943146416	0.8521033128191682	0.11061671792307891	0.297267943037669	1.0273598097525403	0.18653308070113447	0.27013142444415206	1.0884802792476576	0.19293353994400553	0.2688611967987226	1.1094902694194702	0.18322110267796096	0.2930465826584222	1.130237729162982
5	0.0833333333333333	0.29655507624371485	0.48835839055278296	1.0168261380867758	0.2955523984053885	0.5208142374651107	1.4537930959942484	0.29051855702284907	0.6105628636500282	1.8801147757545582	0.2759302742396223	0.4342149809429945	1.894839668252464	0.323806893032935	0.4630416692783488	1.8930541024701562	0.2691873337225733	0.6920808034572428	1.9443073788767136	0.09305126048242543	0.47421311007341904	1.0201294145801185	0.09455497786311283	0.5304615586381155	1.4604259605438898	0.09441631968022289	0.5799702725644228	1.8675111773436153	0.12577782933781823	0.44743731357916516	1.9027586210199536	0.06560385747024468	0.45815355222110415	1.8834221799047162	0.10877122556527064	0.6343239970783239	1.9230821926723185	0.19755661371986302	0.43008837364134567	0.509073108780486	0.20870355495568235	0.3197041692959049	0.25845533994584324	0.19186795210977992	0.2586467121146416	0.4006148488294656	0.33256900835815634	0.4000464522859982	0.5881797510523089	0.3685609578488921	0.4085093327134422	0.8504924632582982	0.2765939840668053	0.31024648341303257	1.0380363643687867	0.18121550739604908	0.26839333870427556	1.0981940688977256	0.17776767169588634	0.2773229422055688	1.1144745522668202	0.19150504169660124	0.297890560732442	1.137556951153433	0.06284508903402951	0.4534334229235054	0.5958237742566526	0.029136674392997254	0.4052695524924853	0.8521089196739282	0.11061283304405413	0.2974992167507238	1.026853995216009	0.18705259920488476	0.26078618031492684	1.0846449169965378	0.19298037459968664	0.264891355434599	1.1083788889625426	0.1830329309052163	0.2890522950582054	1.1303217916027455
6	0.1	0.296694822622076	0.4886235176739922	1.014448619129924	0.29552826173682223	0.5208717913239783	1.45401680200022	0.2905764682186176	0.6107215989919962	1.8805932196499273	0.2759740322674201	0.43446966016911803	1.8950091290446587	0.32539692429762124	0.45793280682419807	1.890375712738489	0.26923954822280893	0.6922146602639176	1.9442481970526515	0.09307458761914089	0.4739236095987352	1.0174161946624718	0.09434651048494284	0.5302429572873808	1.4602464326982465	0.09431273032161434	0.5798955633937866	1.867437483414575	0.1271203832346698	0.44756182497673375	1.902871222107096	0.06576321295704018	0.4576932960870227	1.8831337043048484	0.10873921823274012	0.6340019129798388	1.9228867923621604	0.19617553107790842	0.4296920928031231	0.5090505522798561	0.2080842315805251	0.3168685091904	0.2585285004187232	0.19186463753175267	0.2586414185604148	0.4006067304430627	0.33264328623037104	0.39979956052853016	0.5880723661743446	0.36857333752754046	0.40839047850401944	0.8503797745767696	0.2765864816617501	0.30996020358072135	1.0379321635950585	0.1811251954080733	0.2625494952126173	1.0965743411209306	0.17710870999728015	0.2723487334448197	1.1122088881662158	0.19158982285049808	0.29786863268562025	1.1376408071680695	0.06282745593204252	0.4533496857954853	0.5957309567444945	0.029164558430389877	0.40528138871413966	0.8520974809294366	0.110603165489901	0.2975889270756078	1.0265777193835457	0.1871350295559058	0.2538827511520684	1.082200759199012	0.19287718920738595	0.261334496050602	1.107397113066657	0.1822246656261063	0.2852990665671053	1.130363523103947
